{
	"asset":{
		"generator":"Khronos glTF Blender I/O v4.0.44",
		"version":"2.0"
	},
	"scene":0,
	"scenes":[
		{
			"name":"Scene",
			"nodes":[
				4
			]
		}
	],
	"nodes":[
		{
			"mesh":0,
			"name":"Pipe_lambert1_0",
			"translation":[
				0.0696331188082695,
				-3.574504852294922,
				0
			]
		},
		{
			"children":[
				0
			],
			"name":"Pipe",
			"rotation":[
				0,
				0,
				0.7038685083389282,
				0.7103303074836731
			],
			"scale":[
				1.3460510969161987,
				2.869330644607544,
				1.3460509777069092
			],
			"translation":[
				-0.08876971900463104,
				0,
				0
			]
		},
		{
			"children":[
				1
			],
			"name":"RootNode"
		},
		{
			"children":[
				2
			],
			"name":"9ef2a72edd6f4bc5aab03ef2a90fe743.fbx",
			"rotation":[
				0.70710688829422,
				0,
				0,
				0.7071066498756409
			]
		},
		{
			"children":[
				3
			],
			"name":"Sketchfab_model",
			"rotation":[
				-0.70710688829422,
				0,
				0,
				0.7071066498756409
			]
		}
	],
	"materials":[
		{
			"doubleSided":true,
			"name":"lambert1",
			"normalTexture":{
				"index":0
			},
			"occlusionTexture":{
				"index":1
			},
			"pbrMetallicRoughness":{
				"baseColorTexture":{
					"index":2
				},
				"metallicRoughnessTexture":{
					"index":1
				}
			}
		}
	],
	"meshes":[
		{
			"name":"Pipe_lambert1_0",
			"primitives":[
				{
					"attributes":{
						"POSITION":0,
						"NORMAL":1,
						"TEXCOORD_0":2
					},
					"indices":3,
					"material":0
				}
			]
		}
	],
	"textures":[
		{
			"sampler":0,
			"source":0
		},
		{
			"sampler":0,
			"source":1
		},
		{
			"sampler":0,
			"source":2
		}
	],
	"images":[
		{
			"mimeType":"image/png",
			"name":"lambert1_normal",
			"uri":"lambert1_normal.png"
		},
		{
			"mimeType":"image/png",
			"name":"lambert1_metallicRoughness",
			"uri":"lambert1_metallicRoughness.png"
		},
		{
			"mimeType":"image/jpeg",
			"name":"lambert1_baseColor",
			"uri":"lambert1_baseColor.jpg"
		}
	],
	"accessors":[
		{
			"bufferView":0,
			"componentType":5126,
			"count":1288,
			"max":[
				0.9501035809516907,
				7,
				0.9585612416267395
			],
			"min":[
				-0.9501035809516907,
				2.8607335167407655e-08,
				-0.9601545333862305
			],
			"type":"VEC3"
		},
		{
			"bufferView":1,
			"componentType":5126,
			"count":1288,
			"type":"VEC3"
		},
		{
			"bufferView":2,
			"componentType":5126,
			"count":1288,
			"type":"VEC2"
		},
		{
			"bufferView":3,
			"componentType":5123,
			"count":6864,
			"type":"SCALAR"
		}
	],
	"bufferViews":[
		{
			"buffer":0,
			"byteLength":15456,
			"byteOffset":0,
			"target":34962
		},
		{
			"buffer":0,
			"byteLength":15456,
			"byteOffset":15456,
			"target":34962
		},
		{
			"buffer":0,
			"byteLength":10304,
			"byteOffset":30912,
			"target":34962
		},
		{
			"buffer":0,
			"byteLength":13728,
			"byteOffset":41216,
			"target":34963
		}
	],
	"samplers":[
		{
			"magFilter":9729,
			"minFilter":9987
		}
	],
	"buffers":[
		{
			"byteLength":54944,
			"uri":"pipe.bin"
		}
	]
}
